<svg xmlns="http://www.w3.org/2000/svg" version="1.1" xmlns:xlink="http://www.w3.org/1999/xlink" xmlns:svgjs="http://svgjs.dev/svgjs" width="2000" height="202" viewBox="0 0 2000 202"><g transform="matrix(1,0,0,1,-1.2121212121212466,-0.6152726199262446)"><svg viewBox="0 0 396 40" data-background-color="#ffffff" preserveAspectRatio="xMidYMid meet" height="202" width="2000" xmlns="http://www.w3.org/2000/svg" xmlns:xlink="http://www.w3.org/1999/xlink"><g id="tight-bounds" transform="matrix(1,0,0,1,0.2400000000000091,0.12183616236163175)"><svg viewBox="0 0 395.52 39.75632767527676" height="39.75632767527676" width="395.52"><g><svg viewBox="0 0 395.52 39.75632767527676" height="39.75632767527676" width="395.52"><g><svg viewBox="0 0 395.52 39.75632767527676" height="39.75632767527676" width="395.52"><g><svg viewBox="0 0 395.52 39.75632767527676" height="39.75632767527676" width="395.52"><g><svg viewBox="0 0 395.52 39.75632767527676" height="39.75632767527676" width="395.52"><g id="textblocktransform"><svg viewBox="0 0 395.52 39.75632767527676" height="39.75632767527676" width="395.52" id="textblock"><g><svg viewBox="0 0 395.52 39.75632767527676" height="39.75632767527676" width="395.52"><g transform="matrix(1,0,0,1,0,0)"><svg width="395.52" viewBox="2 -33.55 338.72 34.05" height="39.75632767527676" data-palette-color="#0080ff"><path d="M28.9-7.8L28.9-7.8 30.8-5.3Q27.65-2.4 24.7-1.07 21.75 0.25 17.9 0.25L17.9 0.25Q13.15 0.25 9.55-1.93 5.95-4.1 3.98-7.93 2-11.75 2-16.75L2-16.75Q2-19.9 3-22.9 4-25.9 6-28.3 8-30.7 11.08-32.13 14.15-33.55 18.25-33.55L18.25-33.55Q21.4-33.55 24.5-32.88 27.6-32.2 30.35-30.9L30.35-30.9Q29.85-28.75 29.38-26.48 28.9-24.2 28.5-22L28.5-22 25.6-22 24.6-27.8Q22.65-29.25 20.03-29.83 17.4-30.4 14.6-30.4L14.6-30.4Q11.55-28.75 10.3-25.4 9.05-22.05 9.05-17.9L9.05-17.9Q9.05-13.45 10.4-10.23 11.75-7 14.1-5.28 16.45-3.55 19.4-3.55L19.4-3.55Q22.15-3.55 24.23-4.6 26.3-5.65 28.9-7.8ZM46.25-21.8L46.25-21.8Q48.9-21.8 50.85-20.18 52.8-18.55 52.8-15.25L52.8-15.25Q52.8-13.1 52.72-11.65 52.65-10.2 52.57-9.08 52.5-7.95 52.5-6.75L52.5-6.75Q52.5-5.35 52.67-4.78 52.85-4.2 53.65-4.2L53.65-4.2Q54.35-4.2 55.75-4.85L55.75-4.85 56.65-2.65Q54.85-1.4 53.2-0.58 51.55 0.25 49.7 0.25L49.7 0.25Q48.15 0.25 47-0.98 45.85-2.2 45.85-4.85L45.85-4.85Q45.85-7.3 46.07-9.68 46.3-12.05 46.3-13.9L46.3-13.9Q46.3-15.45 45.85-16.4 45.4-17.35 44.35-17.7L44.35-17.7Q42.05-17.6 39.95-16.85 37.85-16.1 35.65-14.95L35.65-14.95 34.35-17.1Q37.2-19.2 40.12-20.5 43.05-21.8 46.25-21.8ZM49.8-13.95L49.8-13.95 46.8-9.8Q45.7-9.55 44.85-9.3 44-9.05 43.3-8.9L43.3-8.9Q41.6-8.55 40.95-8.03 40.3-7.5 40.3-6.2L40.3-6.2Q40.3-5.15 40.85-4.55 41.4-3.95 42.35-3.95L42.35-3.95Q43.5-3.95 45.27-5.03 47.05-6.1 48.3-7.75L48.3-7.75 49.25-5.7Q48.45-4.7 46.97-3.25 45.5-1.8 43.45-0.68 41.4 0.45 38.95 0.45L38.95 0.45Q37.7 0.45 36.52-0.23 35.35-0.9 34.57-2.25 33.8-3.6 33.8-5.6L33.8-5.6Q33.8-7.7 35.07-8.88 36.35-10.05 38.55-10.7 40.75-11.35 43.4-11.8L43.4-11.8Q45.2-12.1 46.75-12.58 48.3-13.05 49.8-13.95ZM68.65-21.7L68.65-21.7Q68.7-20.55 68.8-19 68.9-17.45 69-16.18 69.1-14.9 69.1-14.45L69.1-14.45 69.45-3.1 74.4-1.85 73.65 0Q72.8-0.05 71.4-0.08 70-0.1 68.5-0.13 67-0.15 65.8-0.15L65.8-0.15Q64.25-0.15 62.45-0.1 60.65-0.05 59.15 0L59.15 0 58.4-1.85 62.45-2.9Q62.45-5.15 62.45-6.93 62.45-8.7 62.45-10.8L62.45-10.8Q62.45-11.95 62.42-12.93 62.4-13.9 62.35-15.13 62.3-16.35 62.15-18.15L62.15-18.15 58.75-18.7 58.05-20.8Q59.2-20.85 61.12-20.95 63.05-21.05 65.1-21.25 67.15-21.45 68.65-21.7ZM75.35-21.8L75.35-21.8Q76.75-21.8 77.95-21.28 79.15-20.75 80.25-19.6L80.25-19.6Q79.95-18.1 79.7-17 79.45-15.9 79.12-14.83 78.8-13.75 78.35-12.2L78.35-12.2 75.55-12.2Q75.2-14.05 74.52-15.43 73.85-16.8 72.7-17.3L72.7-17.3Q71.45-16.5 70.32-14.33 69.2-12.15 69.2-8.55L69.2-8.55 67.25-11.45Q67.65-14.25 68.8-16.6 69.95-18.95 71.62-20.38 73.3-21.8 75.35-21.8ZM92.99-21.85L92.99-21.85Q95.49-21.85 97.62-20.75 99.74-19.65 101.02-17.43 102.29-15.2 102.29-11.85L102.29-11.85Q101.19-11.65 99.39-11.5 97.59-11.35 95.44-11.28 93.29-11.2 91.14-11.2L91.14-11.2Q89.54-11.2 88.39-11.25 87.24-11.3 86.84-11.35L86.84-11.35 86.84-13.75Q87.39-13.75 88.52-13.75 89.64-13.75 91.04-13.8 92.44-13.85 93.77-13.95 95.09-14.05 95.99-14.2L95.99-14.2Q95.94-15.25 95.42-16.32 94.89-17.4 93.84-18.15 92.79-18.9 91.14-18.9L91.14-18.9Q90.14-17.95 89.54-16.28 88.94-14.6 88.94-12.4L88.94-12.4Q88.94-7.9 90.82-5.78 92.69-3.65 95.44-3.65L95.44-3.65Q98.24-3.65 101.34-5.65L101.34-5.65 102.44-3.35Q100.29-1.4 97.84-0.55 95.39 0.3 92.99 0.3L92.99 0.3Q90.19 0.3 87.77-0.93 85.34-2.15 83.87-4.6 82.39-7.05 82.39-10.7L82.39-10.7Q82.39-14.4 83.92-16.88 85.44-19.35 87.87-20.6 90.29-21.85 92.99-21.85ZM114.99-21.85L114.99-21.85Q117.49-21.85 119.62-20.75 121.74-19.65 123.02-17.43 124.29-15.2 124.29-11.85L124.29-11.85Q123.19-11.65 121.39-11.5 119.59-11.35 117.44-11.28 115.29-11.2 113.14-11.2L113.14-11.2Q111.54-11.2 110.39-11.25 109.24-11.3 108.84-11.35L108.84-11.35 108.84-13.75Q109.39-13.75 110.52-13.75 111.64-13.75 113.04-13.8 114.44-13.85 115.77-13.95 117.09-14.05 117.99-14.2L117.99-14.2Q117.94-15.25 117.42-16.32 116.89-17.4 115.84-18.15 114.79-18.9 113.14-18.9L113.14-18.9Q112.14-17.95 111.54-16.28 110.94-14.6 110.94-12.4L110.94-12.4Q110.94-7.9 112.82-5.78 114.69-3.65 117.44-3.65L117.44-3.65Q120.24-3.65 123.34-5.65L123.34-5.65 124.44-3.35Q122.29-1.4 119.84-0.55 117.39 0.3 114.99 0.3L114.99 0.3Q112.19 0.3 109.77-0.93 107.34-2.15 105.87-4.6 104.39-7.05 104.39-10.7L104.39-10.7Q104.39-14.4 105.92-16.88 107.44-19.35 109.87-20.6 112.29-21.85 114.99-21.85ZM136.74-21.7L136.74-21.7Q136.79-20.55 136.89-19 136.99-17.45 137.09-16.18 137.19-14.9 137.19-14.45L137.19-14.45 137.54-3.1 142.49-1.85 141.74 0Q140.89-0.05 139.49-0.08 138.09-0.1 136.59-0.13 135.09-0.15 133.89-0.15L133.89-0.15Q132.34-0.15 130.54-0.1 128.74-0.05 127.24 0L127.24 0 126.49-1.85 130.54-2.9Q130.54-5.15 130.54-6.93 130.54-8.7 130.54-10.8L130.54-10.8Q130.54-11.95 130.51-12.93 130.49-13.9 130.44-15.13 130.39-16.35 130.24-18.15L130.24-18.15 126.84-18.7 126.14-20.8Q127.29-20.85 129.21-20.95 131.14-21.05 133.19-21.25 135.24-21.45 136.74-21.7ZM143.44-21.8L143.44-21.8Q144.84-21.8 146.04-21.28 147.24-20.75 148.34-19.6L148.34-19.6Q148.04-18.1 147.79-17 147.54-15.9 147.21-14.83 146.89-13.75 146.44-12.2L146.44-12.2 143.64-12.2Q143.29-14.05 142.61-15.43 141.94-16.8 140.79-17.3L140.79-17.3Q139.54-16.5 138.41-14.33 137.29-12.15 137.29-8.55L137.29-8.55 135.34-11.45Q135.74-14.25 136.89-16.6 138.04-18.95 139.71-20.38 141.39-21.8 143.44-21.8ZM188.33-7.8L188.33-7.8 190.23-5.3Q187.08-2.4 184.13-1.07 181.18 0.25 177.33 0.25L177.33 0.25Q172.58 0.25 168.98-1.93 165.38-4.1 163.41-7.93 161.43-11.75 161.43-16.75L161.43-16.75Q161.43-19.9 162.43-22.9 163.43-25.9 165.43-28.3 167.43-30.7 170.51-32.13 173.58-33.55 177.68-33.55L177.68-33.55Q180.83-33.55 183.93-32.88 187.03-32.2 189.78-30.9L189.78-30.9Q189.28-28.75 188.81-26.48 188.33-24.2 187.93-22L187.93-22 185.03-22 184.03-27.8Q182.08-29.25 179.46-29.83 176.83-30.4 174.03-30.4L174.03-30.4Q170.98-28.75 169.73-25.4 168.48-22.05 168.48-17.9L168.48-17.9Q168.48-13.45 169.83-10.23 171.18-7 173.53-5.28 175.88-3.55 178.83-3.55L178.83-3.55Q181.58-3.55 183.66-4.6 185.73-5.65 188.33-7.8ZM204.83-21.7L204.83-21.7Q208.53-21.7 211.01-20.15 213.48-18.6 214.71-16.1 215.93-13.6 215.93-10.7L215.93-10.7Q215.93-7.75 214.68-5.18 213.43-2.6 210.93-1.05 208.43 0.5 204.68 0.5L204.68 0.5Q200.93 0.5 198.38-1.07 195.83-2.65 194.53-5.25 193.23-7.85 193.23-10.8L193.23-10.8Q193.23-13.7 194.51-16.18 195.78-18.65 198.36-20.18 200.93-21.7 204.83-21.7ZM200.23-11.85L200.23-11.85Q200.23-9.35 200.81-7.1 201.38-4.85 202.53-3.45 203.68-2.05 205.28-2.05L205.28-2.05Q207.18-2.05 208.11-4.13 209.03-6.2 209.03-9.3L209.03-9.3Q209.03-11.8 208.46-14.03 207.88-16.25 206.76-17.68 205.63-19.1 203.98-19.1L203.98-19.1Q202.08-19.1 201.16-17.03 200.23-14.95 200.23-11.85ZM237.38-21.75L237.38-21.75Q240.23-21.75 242.05-19.6 243.88-17.45 244.08-14.05L244.08-14.05Q244.13-13.15 244.08-11.23 244.03-9.3 244-7.05 243.98-4.8 243.98-2.9L243.98-2.9 247.73-1.85 246.93 0Q245.63-0.1 243.98-0.13 242.33-0.15 240.73-0.15L240.73-0.15Q238.78-0.15 237.23-0.1 235.68-0.05 234.38 0L234.38 0 233.73-1.85 237.38-2.9Q237.43-4.6 237.48-5.78 237.53-6.95 237.55-8.13 237.58-9.3 237.53-10.9L237.53-10.9Q237.48-13.95 236.43-15.35 235.38-16.75 233.33-17.2L233.33-17.2Q231.13-15.75 230.13-13.65 229.13-11.55 229.18-9.65L229.18-9.65 227.33-11.85Q227.68-14.7 229.05-16.95 230.43-19.2 232.58-20.48 234.73-21.75 237.38-21.75ZM229.23-22L229.23-22Q229.23-20.35 229.23-19.33 229.23-18.3 229.2-17.28 229.18-16.25 229.08-14.55L229.08-14.55 229.28-2.9 232.93-1.85 232.28 0Q230.58-0.1 229.08-0.13 227.58-0.15 225.78-0.15L225.78-0.15Q223.83-0.15 222.4-0.1 220.98-0.05 219.53 0L219.53 0 218.73-1.85 222.48-2.9Q222.48-4.5 222.6-6.68 222.73-8.85 222.73-10.8L222.73-10.8Q222.73-12.25 222.7-13.23 222.68-14.2 222.58-15.28 222.48-16.35 222.28-18.1L222.28-18.1 218.38-19.05 217.78-20.95Q220.73-21.1 223.35-21.38 225.98-21.65 229.23-22ZM268.53-21.75L268.53-21.75Q271.38-21.75 273.2-19.6 275.03-17.45 275.23-14.05L275.23-14.05Q275.28-13.15 275.23-11.23 275.18-9.3 275.15-7.05 275.13-4.8 275.13-2.9L275.13-2.9 278.88-1.85 278.08 0Q276.78-0.1 275.13-0.13 273.48-0.15 271.88-0.15L271.88-0.15Q269.93-0.15 268.38-0.1 266.83-0.05 265.53 0L265.53 0 264.88-1.85 268.53-2.9Q268.58-4.6 268.63-5.78 268.68-6.95 268.7-8.13 268.73-9.3 268.68-10.9L268.68-10.9Q268.63-13.95 267.58-15.35 266.53-16.75 264.48-17.2L264.48-17.2Q262.28-15.75 261.28-13.65 260.28-11.55 260.33-9.65L260.33-9.65 258.48-11.85Q258.83-14.7 260.2-16.95 261.58-19.2 263.73-20.48 265.88-21.75 268.53-21.75ZM260.38-22L260.38-22Q260.38-20.35 260.38-19.33 260.38-18.3 260.35-17.28 260.33-16.25 260.23-14.55L260.23-14.55 260.43-2.9 264.08-1.85 263.43 0Q261.73-0.1 260.23-0.13 258.73-0.15 256.93-0.15L256.93-0.15Q254.98-0.15 253.55-0.1 252.13-0.05 250.68 0L250.68 0 249.88-1.85 253.63-2.9Q253.63-4.5 253.75-6.68 253.88-8.85 253.88-10.8L253.88-10.8Q253.88-12.25 253.85-13.23 253.83-14.2 253.73-15.28 253.63-16.35 253.43-18.1L253.43-18.1 249.53-19.05 248.93-20.95Q251.88-21.1 254.5-21.38 257.13-21.65 260.38-22ZM291.12-21.85L291.12-21.85Q293.62-21.85 295.75-20.75 297.87-19.65 299.15-17.43 300.42-15.2 300.42-11.85L300.42-11.85Q299.32-11.65 297.52-11.5 295.72-11.35 293.57-11.28 291.42-11.2 289.27-11.2L289.27-11.2Q287.67-11.2 286.52-11.25 285.37-11.3 284.97-11.35L284.97-11.35 284.97-13.75Q285.52-13.75 286.65-13.75 287.77-13.75 289.17-13.8 290.57-13.85 291.9-13.95 293.22-14.05 294.12-14.2L294.12-14.2Q294.07-15.25 293.55-16.32 293.02-17.4 291.97-18.15 290.92-18.9 289.27-18.9L289.27-18.9Q288.27-17.95 287.67-16.28 287.07-14.6 287.07-12.4L287.07-12.4Q287.07-7.9 288.95-5.78 290.82-3.65 293.57-3.65L293.57-3.65Q296.37-3.65 299.47-5.65L299.47-5.65 300.57-3.35Q298.42-1.4 295.97-0.55 293.52 0.3 291.12 0.3L291.12 0.3Q288.32 0.3 285.9-0.93 283.47-2.15 282-4.6 280.52-7.05 280.52-10.7L280.52-10.7Q280.52-14.4 282.05-16.88 283.57-19.35 286-20.6 288.42-21.85 291.12-21.85ZM321.37-5.9L322.72-3.45Q321.02-1.9 318.7-0.8 316.37 0.3 313.37 0.3L313.37 0.3Q309.77 0.3 307.35-1.3 304.92-2.9 303.72-5.4 302.52-7.9 302.52-10.65L302.52-10.65Q302.52-13.45 303.77-16 305.02-18.55 307.55-20.18 310.07-21.8 313.97-21.8L313.97-21.8Q316.07-21.8 318.1-21.33 320.12-20.85 321.97-19.7L321.97-19.7Q321.27-17.1 320.97-15.43 320.67-13.75 320.37-12.25L320.37-12.25 317.87-12.25 317.12-16.8Q315.87-17.85 314.27-18.45 312.67-19.05 311.07-18.95L311.07-18.95Q310.02-17.7 309.45-16 308.87-14.3 308.87-12.5L308.87-12.5Q308.87-9.8 309.82-7.85 310.77-5.9 312.35-4.83 313.92-3.75 315.77-3.75L315.77-3.75Q317.02-3.75 318.45-4.28 319.87-4.8 321.37-5.9L321.37-5.9ZM333.12-27.6L333.12-27.6Q333.02-25.85 332.97-23.53 332.92-21.2 332.89-18.73 332.87-16.25 332.89-14 332.92-11.75 332.94-10.1 332.97-8.45 333.02-7.8L333.02-7.8Q333.12-5.95 333.67-5.2 334.22-4.45 335.42-4.45L335.42-4.45Q336.27-4.45 337.22-4.75 338.17-5.05 339.72-6L339.72-6 340.72-4Q339.47-2.95 338.04-1.9 336.62-0.85 334.94-0.18 333.27 0.5 331.22 0.5L331.22 0.5Q330.07 0.5 328.97 0.03 327.87-0.45 327.19-1.63 326.52-2.8 326.52-4.8L326.52-4.8Q326.52-4.75 326.54-5.7 326.57-6.65 326.59-8.22 326.62-9.8 326.67-11.55 326.72-13.3 326.74-14.85 326.77-16.4 326.79-17.38 326.82-18.35 326.82-18.25L326.82-18.25Q326.77-18.8 326.19-19.2 325.62-19.6 324.87-19.9 324.12-20.2 323.52-20.45 322.92-20.7 322.87-21L322.87-21Q324.07-21.2 324.92-21.4 325.77-21.6 326.77-21.85L326.77-21.85Q327.87-23.3 328.74-24.58 329.62-25.85 330.77-27.6L330.77-27.6Q331.22-27.6 331.92-27.6 332.62-27.6 333.12-27.6ZM322.87-21L340.02-21.05 340.02-17.4 322.87-18.4 322.87-21Z" opacity="1" transform="matrix(1,0,0,1,0,0)" fill="#0080ff" class="wordmark-text-0" data-fill-palette-color="primary" id="text-0"></path></svg></g></svg></g></svg></g></svg></g></svg></g></svg></g></svg></g><defs></defs></svg><rect width="395.52" height="39.75632767527676" fill="none" stroke="none" visibility="hidden"></rect></g></svg></g></svg>