<svg xmlns="http://www.w3.org/2000/svg" version="1.1" xmlns:xlink="http://www.w3.org/1999/xlink" xmlns:svgjs="http://svgjs.dev/svgjs" width="2000" height="434" viewBox="0 0 2000 434"><g transform="matrix(1,0,0,1,-1.2121212121212466,-1.2572316126999397)"><svg viewBox="0 0 396 86" data-background-color="#000000" preserveAspectRatio="xMidYMid meet" height="434" width="2000" xmlns="http://www.w3.org/2000/svg" xmlns:xlink="http://www.w3.org/1999/xlink"><g id="tight-bounds" transform="matrix(1,0,0,1,0.2400000000000091,0.24912884491288878)"><svg viewBox="0 0 395.52 85.50174231017422" height="85.50174231017422" width="395.52"><g><svg viewBox="0 0 395.52 85.50174231017422" height="85.50174231017422" width="395.52"><g><svg viewBox="0 0 395.52 85.50174231017422" height="85.50174231017422" width="395.52"><g><svg viewBox="0 0 395.52 85.50174231017422" height="85.50174231017422" width="395.52"><g><svg viewBox="0 0 395.52 85.50174231017422" height="85.50174231017422" width="395.52"><g id="textblocktransform"><svg viewBox="0 0 395.52 85.50174231017422" height="85.50174231017422" width="395.52" id="textblock"><g><svg viewBox="0 0 395.52 85.50174231017422" height="85.50174231017422" width="395.52"><g transform="matrix(1,0,0,1,0,0)"><svg width="395.52" viewBox="1.25 -37.25 232.43 50.25" height="85.50174231017422" data-palette-color="url(#1dd8c22a-f74f-41b5-99da-ed054c529a6f)"></svg></g></svg></g></svg></g></svg></g></svg></g></svg></g></svg></g><defs></defs><mask id="57fd66b8-509c-45d7-9f18-1c9868694127"><g id="SvgjsG8225"><svg viewBox="0 0 395.52 85.50174231017422" height="85.50174231017422" width="395.52"><g><svg viewBox="0 0 395.52 85.50174231017422" height="85.50174231017422" width="395.52"><g><svg viewBox="0 0 395.52 85.50174231017422" height="85.50174231017422" width="395.52"><g><svg viewBox="0 0 395.52 85.50174231017422" height="85.50174231017422" width="395.52"><g><svg viewBox="0 0 395.52 85.50174231017422" height="85.50174231017422" width="395.52"><g id="SvgjsG8224"><svg viewBox="0 0 395.52 85.50174231017422" height="85.50174231017422" width="395.52" id="SvgjsSvg8223"><g><svg viewBox="0 0 395.52 85.50174231017422" height="85.50174231017422" width="395.52"><g transform="matrix(1,0,0,1,0,0)"><svg width="395.52" viewBox="1.25 -37.25 232.43 50.25" height="85.50174231017422" data-palette-color="url(#1dd8c22a-f74f-41b5-99da-ed054c529a6f)"><path d="M13.7-21.8L13.7-21.8Q16.35-21.8 18.3-20.18 20.25-18.55 20.25-15.25L20.25-15.25Q20.25-13.1 20.18-11.65 20.1-10.2 20.03-9.08 19.95-7.95 19.95-6.75L19.95-6.75Q19.95-5.35 20.13-4.78 20.3-4.2 21.1-4.2L21.1-4.2Q21.8-4.2 23.2-4.85L23.2-4.85 24.1-2.65Q22.3-1.4 20.65-0.58 19 0.25 17.15 0.25L17.15 0.25Q15.6 0.25 14.45-0.98 13.3-2.2 13.3-4.85L13.3-4.85Q13.3-7.3 13.53-9.68 13.75-12.05 13.75-13.9L13.75-13.9Q13.75-15.45 13.3-16.4 12.85-17.35 11.8-17.7L11.8-17.7Q9.5-17.6 7.4-16.85 5.3-16.1 3.1-14.95L3.1-14.95 1.8-17.1Q4.65-19.2 7.58-20.5 10.5-21.8 13.7-21.8ZM17.25-13.95L17.25-13.95 14.25-9.8Q13.15-9.55 12.3-9.3 11.45-9.05 10.75-8.9L10.75-8.9Q9.05-8.55 8.4-8.03 7.75-7.5 7.75-6.2L7.75-6.2Q7.75-5.15 8.3-4.55 8.85-3.95 9.8-3.95L9.8-3.95Q10.95-3.95 12.73-5.03 14.5-6.1 15.75-7.75L15.75-7.75 16.7-5.7Q15.9-4.7 14.43-3.25 12.95-1.8 10.9-0.68 8.85 0.45 6.4 0.45L6.4 0.45Q5.15 0.45 3.98-0.23 2.8-0.9 2.02-2.25 1.25-3.6 1.25-5.6L1.25-5.6Q1.25-7.7 2.53-8.88 3.8-10.05 6-10.7 8.2-11.35 10.85-11.8L10.85-11.8Q12.65-12.1 14.2-12.58 15.75-13.05 17.25-13.95ZM36.65-21.75L36.65-21.75Q36.75-19.95 36.87-18.5 37-17.05 37.05-16.05L37.05-16.05Q37-14.45 37-12.9 37-11.35 37-9.6L37-9.6Q37-7.9 37-6.13 37-4.35 37.05-2.18 37.1 0 37.15 2.93 37.2 5.85 37.25 9.85L37.25 9.85 42.25 11.05 41.55 13Q40.25 12.9 38.25 12.85 36.25 12.8 34.05 12.8L34.05 12.8Q31.6 12.8 30.05 12.85 28.5 12.9 27.05 13L27.05 13 26.3 11.05 30.25 10.05Q30.35 9.05 30.37 7.25 30.4 5.45 30.42 3.38 30.45 1.3 30.45-0.48 30.45-2.25 30.45-3.15L30.45-3.15Q30.45-5.45 30.42-7.55 30.4-9.65 30.32-12.15 30.25-14.65 30.05-18.15L30.05-18.15 25.85-18.9 25.3-20.95Q26.15-21 27.6-21.05 29.05-21.1 30.7-21.18 32.35-21.25 33.92-21.4 35.5-21.55 36.65-21.75ZM43.95-21.8L43.95-21.8Q46.8-21.8 48.72-20.28 50.65-18.75 51.6-16.32 52.55-13.9 52.55-11.2L52.55-11.2Q52.55-8.35 51.45-5.73 50.35-3.1 48.15-1.43 45.95 0.25 42.6 0.25L42.6 0.25Q39.85 0.25 37.77-1.3 35.7-2.85 34.2-5.25L34.2-5.25 35.25-7.35Q36-5.75 37.67-4.5 39.35-3.25 41.3-3.25L41.3-3.25Q42.8-3.25 43.8-4.28 44.8-5.3 45.3-6.95 45.8-8.6 45.8-10.4L45.8-10.4Q45.8-12.2 45.3-13.93 44.8-15.65 43.75-16.85 42.7-18.05 41.05-18.25L41.05-18.25Q40.35-18.1 39.37-17.05 38.4-16 37.7-14.45 37-12.9 37-11.2L37-11.2 35.6-14.55Q36.05-16.95 37.32-18.55 38.6-20.15 40.35-20.98 42.1-21.8 43.95-21.8ZM65.75-21.75L65.75-21.75Q65.84-19.95 65.97-18.5 66.09-17.05 66.15-16.05L66.15-16.05Q66.09-14.45 66.09-12.9 66.09-11.35 66.09-9.6L66.09-9.6Q66.09-7.9 66.09-6.13 66.09-4.35 66.15-2.18 66.2 0 66.25 2.93 66.3 5.85 66.34 9.85L66.34 9.85 71.34 11.05 70.65 13Q69.34 12.9 67.34 12.85 65.34 12.8 63.15 12.8L63.15 12.8Q60.7 12.8 59.15 12.85 57.59 12.9 56.15 13L56.15 13 55.4 11.05 59.34 10.05Q59.45 9.05 59.47 7.25 59.5 5.45 59.52 3.38 59.55 1.3 59.55-0.48 59.55-2.25 59.55-3.15L59.55-3.15Q59.55-5.45 59.52-7.55 59.5-9.65 59.42-12.15 59.34-14.65 59.15-18.15L59.15-18.15 54.95-18.9 54.4-20.95Q55.25-21 56.7-21.05 58.15-21.1 59.8-21.18 61.45-21.25 63.02-21.4 64.59-21.55 65.75-21.75ZM73.05-21.8L73.05-21.8Q75.9-21.8 77.82-20.28 79.75-18.75 80.7-16.32 81.65-13.9 81.65-11.2L81.65-11.2Q81.65-8.35 80.55-5.73 79.45-3.1 77.25-1.43 75.05 0.25 71.7 0.25L71.7 0.25Q68.95 0.25 66.87-1.3 64.8-2.85 63.3-5.25L63.3-5.25 64.34-7.35Q65.09-5.75 66.77-4.5 68.45-3.25 70.4-3.25L70.4-3.25Q71.9-3.25 72.9-4.28 73.9-5.3 74.4-6.95 74.9-8.6 74.9-10.4L74.9-10.4Q74.9-12.2 74.4-13.93 73.9-15.65 72.84-16.85 71.8-18.05 70.15-18.25L70.15-18.25Q69.45-18.1 68.47-17.05 67.5-16 66.8-14.45 66.09-12.9 66.09-11.2L66.09-11.2 64.7-14.55Q65.15-16.95 66.42-18.55 67.7-20.15 69.45-20.98 71.2-21.8 73.05-21.8ZM94.49-37.25L94.49-37.25Q94.44-28.75 94.47-19.93 94.49-11.1 94.64-2.9L94.64-2.9 98.59-1.85 97.64 0Q96.74-0.05 95.97-0.08 95.19-0.1 94.12-0.13 93.04-0.15 91.19-0.15L91.19-0.15Q89.54-0.15 88.47-0.13 87.39-0.1 86.54-0.08 85.69-0.05 84.64 0L84.64 0 83.69-1.85 87.64-2.9Q87.74-8.25 87.77-13.88 87.79-19.5 87.72-24.63 87.64-29.75 87.44-33.6L87.44-33.6 83.14-34.3 82.64-36.25Q83.79-36.35 85.74-36.45 87.69-36.55 90.02-36.75 92.34-36.95 94.49-37.25ZM127.39-21.05L127.39-21.05 128.14-19.15 124.29-18.2Q120.94-10.95 117.77-4.03 114.59 2.9 112.59 9.5L112.59 9.5 117.19 11.05 116.39 13Q115.19 12.9 113.44 12.85 111.69 12.8 109.89 12.8L109.89 12.8Q108.69 12.8 107.17 12.83 105.64 12.85 104.29 12.9 102.94 12.95 102.14 13L102.14 13 101.34 11 107.19 9.4Q108.59 7.4 110.32 4.2 112.04 1 113.84-2.83 115.64-6.65 117.22-10.63 118.79-14.6 119.89-18.2L119.89-18.2 115.99-19.15 116.69-21.05Q118.24-21 119.47-20.98 120.69-20.95 121.99-20.95L121.99-20.95Q123.34-20.95 124.69-20.98 126.04-21 127.39-21.05ZM113.04-21L113.04-21 113.94-19.1 110.34-18.1Q110.94-16.25 111.44-14.85 111.94-13.45 112.47-12.18 112.99-10.9 113.72-9.35 114.44-7.8 115.49-5.65L115.49-5.65Q115.59-5.15 115.24-3.98 114.89-2.8 114.32-1.53 113.74-0.25 113.12 0.65 112.49 1.55 112.09 1.55L112.09 1.55Q110.69-1.55 109.54-4 108.39-6.45 107.34-8.68 106.29-10.9 105.14-13.15 103.99-15.4 102.64-18.1L102.64-18.1 98.84-19.1 99.54-21Q101.04-20.95 102.57-20.9 104.09-20.85 106.04-20.85L106.04-20.85Q108.14-20.85 109.94-20.9 111.74-20.95 113.04-21ZM158.34-21.75L158.34-21.75Q161.19-21.75 163.01-19.6 164.84-17.45 165.04-14.05L165.04-14.05Q165.09-13.15 165.04-11.23 164.99-9.3 164.96-7.05 164.94-4.8 164.94-2.9L164.94-2.9 168.69-1.85 167.89 0Q166.59-0.1 164.94-0.13 163.29-0.15 161.69-0.15L161.69-0.15Q159.74-0.15 158.19-0.1 156.64-0.05 155.34 0L155.34 0 154.69-1.85 158.34-2.9Q158.39-4.6 158.44-5.78 158.49-6.95 158.51-8.13 158.54-9.3 158.49-10.9L158.49-10.9Q158.44-13.95 157.39-15.35 156.34-16.75 154.29-17.2L154.29-17.2Q152.09-15.75 151.09-13.65 150.09-11.55 150.14-9.65L150.14-9.65 148.29-11.85Q148.64-14.7 150.01-16.95 151.39-19.2 153.54-20.48 155.69-21.75 158.34-21.75ZM150.19-22L150.19-22Q150.19-20.35 150.19-19.33 150.19-18.3 150.16-17.28 150.14-16.25 150.04-14.55L150.04-14.55 150.24-2.9 153.89-1.85 153.24 0Q151.54-0.1 150.04-0.13 148.54-0.15 146.74-0.15L146.74-0.15Q144.79-0.15 143.36-0.1 141.94-0.05 140.49 0L140.49 0 139.69-1.85 143.44-2.9Q143.44-4.5 143.56-6.68 143.69-8.85 143.69-10.8L143.69-10.8Q143.69-12.25 143.66-13.23 143.64-14.2 143.54-15.28 143.44-16.35 143.24-18.1L143.24-18.1 139.34-19.05 138.74-20.95Q141.69-21.1 144.31-21.38 146.94-21.65 150.19-22ZM182.13-21.7L182.13-21.7Q185.83-21.7 188.31-20.15 190.78-18.6 192.01-16.1 193.23-13.6 193.23-10.7L193.23-10.7Q193.23-7.75 191.98-5.18 190.73-2.6 188.23-1.05 185.73 0.5 181.98 0.5L181.98 0.5Q178.23 0.5 175.68-1.07 173.13-2.65 171.83-5.25 170.53-7.85 170.53-10.8L170.53-10.8Q170.53-13.7 171.81-16.18 173.08-18.65 175.66-20.18 178.23-21.7 182.13-21.7ZM177.53-11.85L177.53-11.85Q177.53-9.35 178.11-7.1 178.68-4.85 179.83-3.45 180.98-2.05 182.58-2.05L182.58-2.05Q184.48-2.05 185.41-4.13 186.33-6.2 186.33-9.3L186.33-9.3Q186.33-11.8 185.76-14.03 185.18-16.25 184.06-17.68 182.93-19.1 181.28-19.1L181.28-19.1Q179.38-19.1 178.46-17.03 177.53-14.95 177.53-11.85ZM209.08-20.95L209.08-20.95 209.83-19.05 206.28-18Q206.88-16.15 207.36-14.73 207.83-13.3 208.33-12.03 208.83-10.75 209.43-9.28 210.03-7.8 210.93-5.85L210.93-5.85Q210.93-5.35 210.43-4.33 209.93-3.3 209.23-2.2 208.53-1.1 207.86-0.33 207.18 0.45 206.78 0.45L206.78 0.45Q205.33-3.25 204.08-6.23 202.83-9.2 201.56-12.03 200.28-14.85 198.78-18L198.78-18 194.98-19.05 195.78-20.95Q197.28-20.9 198.78-20.85 200.28-20.8 201.98-20.8L201.98-20.8Q206.38-20.8 209.08-20.95ZM214.03-21.2L214.03-21.2 216.73-21.15 216.28-15.85Q214.53-11.9 212.88-7.73 211.23-3.55 209.73 0.45L209.73 0.45 206.78 0.45Q207.83-1.9 208.88-4.73 209.93-7.55 210.91-10.5 211.88-13.45 212.71-16.2 213.53-18.95 214.03-21.2ZM212.78-13.75L216.73-21.15Q218.03-17.7 219.03-15.13 220.03-12.55 221.01-10.18 221.98-7.8 223.18-4.9L223.18-4.9Q223.18-4.4 222.68-3.5 222.18-2.6 221.43-1.7 220.68-0.8 219.96-0.18 219.23 0.45 218.78 0.45L218.78 0.45Q217.63-2.65 216.76-4.95 215.88-7.25 214.98-9.3 214.08-11.35 212.78-13.75L212.78-13.75ZM232.83-20.95L232.83-20.95 233.68-19.05 229.58-18Q228.08-14.65 226.76-11.68 225.43-8.7 224.21-5.78 222.98-2.85 221.68 0.45L221.68 0.45 218.78 0.45Q220.53-3.55 222.33-8.3 224.13-13.05 225.23-18L225.23-18 221.23-19.05 221.98-20.95Q225.08-20.8 227.63-20.8L227.63-20.8Q229.33-20.8 230.41-20.85 231.48-20.9 232.83-20.95Z" opacity="1" transform="matrix(1,0,0,1,0,0)" fill="white" class="wordmark-text-0" id="SvgjsPath8222"></path></svg></g></svg></g></svg></g></svg></g></svg></g></svg></g></svg></g><defs><mask></mask></defs></svg><rect width="395.52" height="85.50174231017422" fill="black" stroke="none" visibility="hidden"></rect></g></mask><linearGradient x1="0.054" x2="0.941" y1="0.5" y2="0.5" id="1dd8c22a-f74f-41b5-99da-ed054c529a6f"><stop stop-color="#0f3054" offset="0"></stop><stop stop-color="#3b8dcb" offset="0.498"></stop><stop stop-color="#0f3054" offset="1"></stop></linearGradient><rect width="395.52" height="85.50174231017422" fill="url(#1dd8c22a-f74f-41b5-99da-ed054c529a6f)" mask="url(#57fd66b8-509c-45d7-9f18-1c9868694127)" data-fill-palette-color="primary"></rect></svg><rect width="395.52" height="85.50174231017422" fill="none" stroke="none" visibility="hidden"></rect></g></svg></g></svg>