<?xml version="1.0" encoding="utf-8"?>
<!-- Generator: Adobe Illustrator 27.5.0, SVG Export Plug-In . SVG Version: 6.00 Build 0)  -->
<svg version="1.1" xmlns="http://www.w3.org/2000/svg" xmlns:xlink="http://www.w3.org/1999/xlink" x="0px" y="0px"
	 viewBox="0 0 3710 3710" style="enable-background:new 0 0 3710 3710;" xml:space="preserve">
<g id="Background">
	<g>
		<g>
			<rect style="fill:none;" width="3710" height="3710"/>
		</g>
	</g>
</g>
<g id="Illustration">
	<g>
		<linearGradient id="SVGID_1_" gradientUnits="userSpaceOnUse" x1="3518.4026" y1="3705.2903" x2="1559.1802" y2="1619.6669">
			<stop  offset="0" style="stop-color:#DAE3FE"/>
			<stop  offset="1" style="stop-color:#E9EFFD"/>
		</linearGradient>
		<path style="fill:url(#SVGID_1_);" d="M2930.148,2868.547c-72.326,74.552-137.042,118.376-186.59,151.46
			c-483.234,322.66-1035.623,229.662-1206.408,197.875c-275.541-51.284-508.135-87.463-707.975-268.01
			c-454.097-410.259-432.011-1266.089-85.025-1796.239c41.142-62.861,387.602-576.422,941.188-648.788
			c13.54-1.77,23.642-2.778,32.491-3.715c85.638-9.067,616.322-56.922,1049.042,305.611
			c61.942,51.895,161.624,145.499,254.061,288.262C3358.925,1617.007,3359.995,2425.477,2930.148,2868.547z"/>
		<g>
			<path style="fill:#91B3FA;" d="M477.251,609.41c-3.611-14.689,17.001-24.691,29.791-14.536
				c129.878,103.109,442.576,412.664,371.107,960.026c-89.669,686.747,78.349,935.26,285.846,1085.76
				c0,0-283.536-68.851-464.084-320.915C256.625,1700.869,541.462,870.583,477.251,609.41z"/>
			<path style="fill:#FFFFFF;" d="M577.483,822.582c16.902,76.174,32.055,152.6,43.949,229.403
				c12.358,76.734,22.017,153.765,28.88,230.952c6.519,77.204,11.36,154.506,12.39,231.881
				c1.433,77.366-0.984,154.708-3.725,232.355c-2.238,77.614-5.003,155.792,1.491,234.429
				c6.397,78.477,23.748,157.527,57.321,231.452c8.392,18.424,17.206,36.786,27.186,54.513
				c9.604,17.896,20.129,35.427,31.014,52.787c21.976,34.634,46.655,68.061,74.1,99.746
				c55.085,63.26,121.31,119.197,194.116,166.365c7.663,4.964,18.554,3.612,24.327-3.02c5.668-6.512,4.292-15.695-3.015-20.725
				l-0.052-0.036c-17.33-11.906-34.481-23.969-50.948-36.653c-8.353-6.229-16.367-12.766-24.521-19.169
				c-7.862-6.663-16.027-13.063-23.641-19.93c-30.987-27.011-59.735-55.874-85.861-86.436
				c-52.545-60.835-94.808-128.794-127.025-199.366c-15.651-35.455-28.246-71.853-37.551-108.97
				c-9.273-37.127-15.255-74.935-18.741-113.073c-6.982-76.319-4.985-153.716-3.394-231.338c1.475-77.64,2.34-155.668-0.515-233.594
				c-1.305-38.962-3.421-77.897-6.344-116.778c-1.332-19.447-3.099-38.867-4.826-58.287c-1.943-19.405-4.009-38.798-6.258-58.172
				c-9.164-77.484-21.061-154.682-35.767-231.441c-15.132-76.695-32.618-153.013-53.481-228.61c-0.597-2.161-3.109-3.49-5.613-2.968
				C578.549,818.408,577.022,820.484,577.483,822.582z"/>
		</g>
		<g>
			<g>
				<path style="fill:#7D97F4;" d="M842.739,1948.354c-15.619,16.919-43.441,12.388-53.157-8.487
					c-53.617-115.183-175.76-454.557,16.085-848.973c162.005-333.067,218.2-529.065,237.545-619.808
					c4.091-19.189,30.3-22.002,38.405-4.134C1171.034,664.079,1408.696,1335.292,842.739,1948.354z"/>
				<path style="fill:#FFFFFF;" d="M813.927,1936.439c-0.561,0.107-1.138,0.16-1.731,0.157c-4.964-0.025-8.969-4.069-8.945-9.034
					c0.028-5.628,5.161-568.244,209.498-1041.527c1.968-4.554,7.257-6.655,11.819-4.691c4.558,1.97,6.657,7.259,4.691,11.819
					C826.408,1363,821.259,1922.06,821.23,1927.651C821.21,1932.024,818.07,1935.652,813.927,1936.439z"/>
			</g>
		</g>
		<g>
			
				<linearGradient id="SVGID_00000095308352172494872620000018234493193020627084_" gradientUnits="userSpaceOnUse" x1="13585.5186" y1="-14162.542" x2="12478.415" y2="-12851.6777" gradientTransform="matrix(-1 0 0 1 1537.429 0)">
				<stop  offset="0" style="stop-color:#FF928E"/>
				<stop  offset="1" style="stop-color:#FE7062"/>
			</linearGradient>
			
				<circle style="fill:url(#SVGID_00000095308352172494872620000018234493193020627084_);" cx="1644.24" cy="2049.84" r="1096.619"/>
			<circle style="fill:#FFFFFF;" cx="1646.313" cy="2059.359" r="944.233"/>
			<g>
				
					<linearGradient id="SVGID_00000171001147297133466180000004965692539184867255_" gradientUnits="userSpaceOnUse" x1="9408.0459" y1="-10824.6436" x2="5974.4277" y2="-6443.4619" gradientTransform="matrix(-0.9338 -0.3579 -0.3579 0.9338 1750.0085 -78.0037)">
					<stop  offset="0" style="stop-color:#09005D"/>
					<stop  offset="1" style="stop-color:#1A0F91"/>
				</linearGradient>
				<path style="fill:url(#SVGID_00000171001147297133466180000004965692539184867255_);" d="M2264.527,1174.592
					c0,0-41.533-81.577-102.437-116.336c-60.903-34.759-20.405,60.694,7.766,91.474c28.171,30.78,39.976,59.569,39.976,59.569
					s-25.399,364.24-255.261,438.87s-351.757,169.226-560.848,89.095s-287.679-20.324-306.773,96.541
					c-19.094,116.865,26.471,288.484-78.566,316.744s-154.135,22.291-225.189,140.653s-111.134,237.279-151.175,241.202
					c-40.041,3.924-37.56,98.007-37.56,98.007s120.777-5.097,144.386-66.701c23.609-61.604,150.154-282.869,150.154-282.869
					s408.207-0.921,452.256-73.961c44.049-73.04,94.536-162.88,94.536-162.88s513.222,135.668,585.927,80.033
					c72.704-55.635,408.476-135.699,396.721-63.129c-11.754,72.57-73.405,152.273-71.6,161.529
					c1.805,9.256-133.46,27.002-148.842,67.14s-28.864,108.838-28.864,108.838s158.283-94.568,201.171-119.883
					s60.584-110.599,66.308-125.534c5.724-14.935,231.226-134.057,131.94-157.12c-99.286-23.063-173.536-55.583-309.738-40.98
					c35.038-108.187,5.593-243.653,8.387-306.814c2.795-63.161,107.788-247.737,107.788-247.737s181.473,32.078,207.856,7.932
					c26.382-24.146,131.839-61.881,25.583-91.896c-106.256-30.016-239.52-78.946-237.966-99.761
					S2331.651,1163.105,2264.527,1174.592z"/>
				
					<linearGradient id="SVGID_00000173125519530292730240000008359581391770539183_" gradientUnits="userSpaceOnUse" x1="8572.5977" y1="-11479.4658" x2="5138.9722" y2="-7098.2754" gradientTransform="matrix(-0.9338 -0.3579 -0.3579 0.9338 1750.0085 -78.0037)">
					<stop  offset="0" style="stop-color:#09005D"/>
					<stop  offset="1" style="stop-color:#1A0F91"/>
				</linearGradient>
				<path style="fill:url(#SVGID_00000173125519530292730240000008359581391770539183_);" d="M2330.885,1210.015
					c0,0-67.565-84.416-46.102-140.423c21.464-56.007,131.77-79.393,178.543-97.152c46.773-17.76,127.299,21.665,132.933-67.528
					c5.635-89.193,2.937-104.501,2.937-104.501s-20.234,123.565-50.186,123.505c-29.952-0.06-121.798,16.127-121.798,16.127
					s89.558-88.433,53.98-152.026c0,0-74.557,149.85-106.603,158.979c-32.046,9.129-40.527,38.709-40.527,38.709
					s23.573-132.277-18.579-171.269c0,0-0.03,134.162-37.137,152.771c-37.107,18.609-46.87,96.228-21.434,160.217
					c25.436,63.988,17.931,109.643,17.931,109.643L2330.885,1210.015z"/>
				
					<linearGradient id="SVGID_00000113334064773563968330000007247113747249461902_" gradientUnits="userSpaceOnUse" x1="9724.9775" y1="-10576.0459" x2="6291.3804" y2="-6194.8916" gradientTransform="matrix(-0.9338 -0.3579 -0.3579 0.9338 1750.0085 -78.0037)">
					<stop  offset="0" style="stop-color:#09005D"/>
					<stop  offset="1" style="stop-color:#1A0F91"/>
				</linearGradient>
				<path style="fill:url(#SVGID_00000113334064773563968330000007247113747249461902_);" d="M1173.312,1734.156
					c-10.346-9.318-77.386-74.62-70.109-110.37c7.278-35.75,27.931-109.196,24.041-121.392
					c-43.464,24.023-55.705,50.378-59.78,63.804c-4.075,13.426-15.885-20.005-15.885-20.005s-56.672,22.173-31.838,83.076
					c24.834,60.903,17.696,93.495,119.207,116.34C1240.458,1768.453,1173.312,1734.156,1173.312,1734.156z"/>
			</g>
			
				<linearGradient id="SVGID_00000095313086335581600510000003184189961900936082_" gradientUnits="userSpaceOnUse" x1="13585.8447" y1="-14162.2471" x2="12478.7412" y2="-12851.3838" gradientTransform="matrix(-1 0 0 1 1537.429 0)">
				<stop  offset="0" style="stop-color:#FF928E"/>
				<stop  offset="1" style="stop-color:#FE7062"/>
			</linearGradient>
			<polygon style="fill:url(#SVGID_00000095313086335581600510000003184189961900936082_);" points="1186.027,1198.678 
				2288.658,2814.121 2128.027,2932.644 1000.84,1322.536 			"/>
			
				<linearGradient id="SVGID_00000008844259061272708310000012896379979903213476_" gradientUnits="userSpaceOnUse" x1="2280.3782" y1="-372.7805" x2="2151.3293" y2="82.2856">
				<stop  offset="0" style="stop-color:#09005D"/>
				<stop  offset="1" style="stop-color:#1A0F91"/>
			</linearGradient>
			<path style="fill:url(#SVGID_00000008844259061272708310000012896379979903213476_);" d="M2003.925,738.133
				c25.233,3.749,167.72-23.986,185.559-46.387c-11.473,39.322-139.8,60.461-178.706,56.551c1.835,3.697,8.571,10.66,6.549,14.404
				c-26-10.608-104.319,78.856-122.945,4.621c16.158-0.372,36.377,1.803,48.837-10.878
				c-57.607-31.123-121.634-44.953-166.073-98.674C1836.944,698.814,1934.179,727.771,2003.925,738.133z"/>
		</g>
		<g>
			
				<linearGradient id="SVGID_00000114790710467313395240000003583112224424757125_" gradientUnits="userSpaceOnUse" x1="10295.7383" y1="1620.5343" x2="10352.3389" y2="2091.4485" gradientTransform="matrix(-1 0 0 1 13310.2578 0)">
				<stop  offset="0" style="stop-color:#4F52FF"/>
				<stop  offset="1" style="stop-color:#4042E2"/>
			</linearGradient>
			<path style="fill:url(#SVGID_00000114790710467313395240000003583112224424757125_);" d="M2903.916,3152.413
				c0,0,5.279,29.888,7.868,59.474c1.011,11.563-7.903,21.602-19.501,22.086c-39.4,1.641-123.677,4.832-153.919,3.483
				c-4.546-0.203-7.518-4.858-5.836-9.087l0,0c1.41-3.542,4.129-6.407,7.594-8l139.211-63.982L2903.916,3152.413z"/>
			
				<linearGradient id="SVGID_00000090288517897499551470000006839247082397215935_" gradientUnits="userSpaceOnUse" x1="10402.0176" y1="3152.2893" x2="10447.2988" y2="3152.2893" gradientTransform="matrix(-1 0 0 1 13310.2578 0)">
				<stop  offset="0" style="stop-color:#FEBBBA"/>
				<stop  offset="1" style="stop-color:#FF928E"/>
			</linearGradient>
			<path style="fill:url(#SVGID_00000090288517897499551470000006839247082397215935_);" d="M2908.24,3134.851l-4.241,35.75
				c0,0-24.386,11.352-41.04-1.43l10.098-39.84L2908.24,3134.851z"/>
			
				<linearGradient id="SVGID_00000137814058868264752530000013724578589593942193_" gradientUnits="userSpaceOnUse" x1="3764.5505" y1="1266.8867" x2="3482.6807" y2="1623.4692" gradientTransform="matrix(1 0 0 1 372.5326 0)">
				<stop  offset="0" style="stop-color:#09005D"/>
				<stop  offset="1" style="stop-color:#1A0F91"/>
			</linearGradient>
			<path style="fill:url(#SVGID_00000137814058868264752530000013724578589593942193_);" d="M2905.052,2462.735
				c1.848,9.418,1.154,510.59-49.062,712.513c0.066,1.183,22.193,10.388,52.25,8.947c0,0,93.3-302.038,103.044-555.907
				c9.743-253.87,0-8.645,0-8.645l-5.714-156.927L2905.052,2462.735z"/>
			
				<linearGradient id="SVGID_00000070085279657998907180000013602606130023049375_" gradientUnits="userSpaceOnUse" x1="10075.8086" y1="1646.9697" x2="10132.4082" y2="2117.8843" gradientTransform="matrix(-1 0 0 1 13310.2578 0)">
				<stop  offset="0" style="stop-color:#4F52FF"/>
				<stop  offset="1" style="stop-color:#4042E2"/>
			</linearGradient>
			<path style="fill:url(#SVGID_00000070085279657998907180000013602606130023049375_);" d="M3064.055,3168.005
				c0,0,8.404,15.089,16.541,55.182c1.469,7.241-3.59,14.171-10.944,14.894c-13.01,1.278-33.038,2.924-49.081,2.813
				c-7.396-0.05-13.168-6.49-12.276-13.833c1.777-14.635,7.313-38.645,24.416-57.359L3064.055,3168.005z"/>
			
				<linearGradient id="SVGID_00000121970554643724629510000017794330607853113994_" gradientUnits="userSpaceOnUse" x1="10238.8223" y1="3149.9668" x2="10277.9189" y2="3149.9668" gradientTransform="matrix(-1 0 0 1 13310.2578 0)">
				<stop  offset="0" style="stop-color:#FEBBBA"/>
				<stop  offset="1" style="stop-color:#FF928E"/>
			</linearGradient>
			<path style="fill:url(#SVGID_00000121970554643724629510000017794330607853113994_);" d="M3071.436,3122.022l-9.911,54.064
				c0,0-9.8,7.288-29.187,2.005l4.731-58.17L3071.436,3122.022z"/>
			
				<linearGradient id="SVGID_00000085960040403342435790000008656317027764704179_" gradientUnits="userSpaceOnUse" x1="3809.0459" y1="1302.0616" x2="3527.1765" y2="1658.6439" gradientTransform="matrix(1 0 0 1 372.5326 0)">
				<stop  offset="0" style="stop-color:#09005D"/>
				<stop  offset="1" style="stop-color:#1A0F91"/>
			</linearGradient>
			<path style="fill:url(#SVGID_00000085960040403342435790000008656317027764704179_);" d="M3098.211,2476.746
				c41.446,250.126-18.296,658.896-32.555,707.602c-0.285,0.077-17.989,9.347-38.578,0c-3.218-23.056,2.869-437.321-36.353-581.302
				c-1.902-6.983-6.098-13.114-11.997-17.308l-72.178-51.312l-5.534-82.948L3098.211,2476.746z"/>
			<g>
				
					<linearGradient id="SVGID_00000086673016517170112770000010918606991706117001_" gradientUnits="userSpaceOnUse" x1="-215.7159" y1="1809.2738" x2="-749.1045" y2="2701.6106" gradientTransform="matrix(-1 0 0 1 2509.9602 0)">
					<stop  offset="0" style="stop-color:#4F52FF"/>
					<stop  offset="1" style="stop-color:#4042E2"/>
				</linearGradient>
				<path style="fill:url(#SVGID_00000086673016517170112770000010918606991706117001_);" d="M2847.32,2016.639
					c97.27-7.431,172.508,14.099,248.154,35.093c35.655,208.041,6.235,448,6.235,448c-92.602,24.284-197.062-14.848-197.062-14.848
					c-9.214-52.06-42.853-207.896-68.369-324.586c-6.215-28.425-25.775,1.159-30.556-20.555c-1.863-8.462,7.884-71.823,8.699-78.951
					C2816.988,2038.349,2825.208,2018.329,2847.32,2016.639z"/>
			</g>
			
				<linearGradient id="SVGID_00000114048953130221343110000012055267457623999905_" gradientUnits="userSpaceOnUse" x1="-464.7443" y1="2063.2161" x2="18.3259" y2="1177.5889" gradientTransform="matrix(-1 0 0 1 2509.9602 0)">
				<stop  offset="0" style="stop-color:#4F52FF"/>
				<stop  offset="1" style="stop-color:#4042E2"/>
			</linearGradient>
			<path style="fill:url(#SVGID_00000114048953130221343110000012055267457623999905_);" d="M3225.573,2223.893
				c-18.375-96.249-130.098-172.161-130.098-172.161l0.524,148.542c0,0,24.188,4.204,32.45,49.651
				c2.164,11.908,0.064,24.4-8.723,36.97c-42.325,60.533-167.766-10.359-167.766-10.359l-16.6,30.928
				c0,0,201.635,143.117,275.775,7.495C3228.185,2283.768,3231.112,2252.908,3225.573,2223.893z"/>
			
				<linearGradient id="SVGID_00000074403672677624656240000008867695926070656897_" gradientUnits="userSpaceOnUse" x1="10306.9365" y1="1985.6436" x2="10422.6846" y2="1985.6436" gradientTransform="matrix(-1 0 0 1 13310.2578 0)">
				<stop  offset="0" style="stop-color:#FEBBBA"/>
				<stop  offset="1" style="stop-color:#FF928E"/>
			</linearGradient>
			<path style="fill:url(#SVGID_00000074403672677624656240000008867695926070656897_);" d="M2965.04,1923.218l38.059,110.063
				c0.63,1.824-0.119,3.843-1.807,4.777c-10.375,5.736-47.752,22.316-92.795-6.242c-4.692-2.975-7.886-7.828-8.6-13.337
				l-12.324-95.26H2965.04z"/>
			
				<linearGradient id="SVGID_00000039834644451864606430000003359192010986307502_" gradientUnits="userSpaceOnUse" x1="-112.9796" y1="1870.6838" x2="-646.3676" y2="2763.0198" gradientTransform="matrix(-1 0 0 1 2509.9602 0)">
				<stop  offset="0" style="stop-color:#4F52FF"/>
				<stop  offset="1" style="stop-color:#4042E2"/>
			</linearGradient>
			<path style="fill:url(#SVGID_00000039834644451864606430000003359192010986307502_);" d="M2845.32,2023.682
				c-70.234-20.199-300.48-173.681-376.926-242.647l-12.443,29.317c0,0,282.139,326.313,315.898,346.407
				C2805.607,2176.853,2845.32,2023.682,2845.32,2023.682z"/>
			<g>
				
					<linearGradient id="SVGID_00000058578285855226636710000014593475524157954702_" gradientUnits="userSpaceOnUse" x1="-836.2338" y1="-1133.6606" x2="-687.9413" y2="-796.2618" gradientTransform="matrix(0.994 -0.1089 0.1089 0.994 3467.1125 2916.9304)">
					<stop  offset="0" style="stop-color:#FEBBBA"/>
					<stop  offset="1" style="stop-color:#FF928E"/>
				</linearGradient>
				<path style="fill:url(#SVGID_00000058578285855226636710000014593475524157954702_);" d="M2459.056,1810.968
					c7.279-0.486,13.786-2.802,21.335-16.262c1.523-2.714,2.146-5.838,1.889-8.94c-0.763-9.244-2.527-24.776-6.926-29.576
					c-27.644-30.158-78.779-66.156-78.779-66.156c-7.03,8.639,0.299,15.568,0.299,15.568l25.203,21.089
					c-3.794,9.068-8.775,16.918-10.348,27.557c-1.191,8.057,0.979,16.29,5.715,22.985c4.756,6.718,11.191,15.425,17.111,22.142
					C2445.758,1812.089,2459.056,1810.968,2459.056,1810.968z"/>
				
					<linearGradient id="SVGID_00000022523757992850918640000005853728224697189035_" gradientUnits="userSpaceOnUse" x1="11310.7061" y1="-1210.7583" x2="11374.9873" y2="-1309.5903" gradientTransform="matrix(-0.994 0.1089 0.1089 0.994 13853.4932 1779.8154)">
					<stop  offset="0" style="stop-color:#FEBBBA"/>
					<stop  offset="0.1647" style="stop-color:#FEA9A7"/>
					<stop  offset="0.3616" style="stop-color:#FF9C99"/>
					<stop  offset="0.6012" style="stop-color:#FF9491"/>
					<stop  offset="1" style="stop-color:#FF928E"/>
				</linearGradient>
				<path style="fill:url(#SVGID_00000022523757992850918640000005853728224697189035_);" d="M2433.648,1740.898l22.529,15.218
					l8.377,16.691l-16.147,22.403c0,0-9.96-33.847-15.372-40.816C2427.624,1747.426,2429.61,1743.552,2433.648,1740.898z"/>
			</g>
			<g>
				<path style="fill:#91B3FA;" d="M2967.032,2366.222l-68.46-239.078c-0.777-2.713-3.092-4.692-5.896-5.02
					c-12.404-1.447-48.346-5.51-89.843-9.02c-49.986-4.229-108.033-7.654-142.721-4.739c-4.931,0.414-7.912,5.629-5.718,10.066
					c19.725,39.907,100.864,202.24,141.495,255.418c1.346,1.761,3.428,2.791,5.645,2.771l158.839-1.479
					C2964.994,2375.098,2968.304,2370.664,2967.032,2366.222z"/>
				<path style="fill:#7D97F4;" d="M2795.732,2092.377l-49.635-8.271c-2.644-0.44-4.808,2.085-3.969,4.631l4.914,14.888
					c0.428,1.296,1.559,2.233,2.911,2.415l47.764,6.38c2.471,0.33,4.508-1.915,3.94-4.342l-3.041-12.998
					C2798.288,2093.678,2797.151,2092.613,2795.732,2092.377z"/>
				<path style="fill:#7D97F4;" d="M2832.897,2134.396l-4.089-21.299c-0.41-2.136-2.174-3.75-4.338-3.97l-100.251-10.173
					c-3.373-0.342-6.075,2.75-5.284,6.048l6.375,26.54c0.51,2.124,2.358,3.657,4.539,3.767l97.966,4.932
					C2831.004,2140.402,2833.499,2137.532,2832.897,2134.396z"/>
				
					<linearGradient id="SVGID_00000174574095183328193140000002195327845996133284_" gradientUnits="userSpaceOnUse" x1="10353.1611" y1="2267.9258" x2="10444.3682" y2="2267.9258" gradientTransform="matrix(-1 0 0 1 13310.2578 0)">
					<stop  offset="0" style="stop-color:#FEBBBA"/>
					<stop  offset="1" style="stop-color:#FF928E"/>
				</linearGradient>
				<path style="fill:url(#SVGID_00000174574095183328193140000002195327845996133284_);" d="M2950.492,2308.459
					c0,0,9.537-39.213,5.69-53.126c-3.847-13.912-11.301-31.8-36.144-27.824c-24.843,3.975-54.149,14.441-54.149,14.441
					s1.48,18.121,20.361,12.274l-11.707,9.059c0,0,1.672,14.51,17.622,6.758l-10.89,12.015c0,0,6.85,11.917,18.583,4.273
					C2911.591,2278.687,2917.216,2313.181,2950.492,2308.459z"/>
			</g>
			<g>
				<g>
					
						<linearGradient id="SVGID_00000044154573943199814530000010422269919670344066_" gradientUnits="userSpaceOnUse" x1="1149.4321" y1="4670.936" x2="1104.0736" y2="4521.333" gradientTransform="matrix(-0.746 -0.6659 -0.6659 0.746 6822.9028 -803.1727)">
						<stop  offset="0" style="stop-color:#FEBBBA"/>
						<stop  offset="1" style="stop-color:#FF928E"/>
					</linearGradient>
					<path style="fill:url(#SVGID_00000044154573943199814530000010422269919670344066_);" d="M2878.315,1820.814
						c0,0-43.826,82.498-38.208,115.824c5.617,33.325,59.933,30.933,107.363,3.867l33.145-89.08L2878.315,1820.814z"/>
					
						<linearGradient id="SVGID_00000019667208659845501370000008361155801909808786_" gradientUnits="userSpaceOnUse" x1="2866.9856" y1="1752.8093" x2="3201.333" y2="2078.7698">
						<stop  offset="0" style="stop-color:#4F52FF"/>
						<stop  offset="1" style="stop-color:#4042E2"/>
					</linearGradient>
					<path style="fill:url(#SVGID_00000019667208659845501370000008361155801909808786_);" d="M2945.375,1896.757
						c-1.928-0.854-2.639-3.212-1.485-4.976c3.511-5.363,10.094-16.308,12.193-25.888c0,0,7.879-5.045-20.053-11.731
						c-27.931-6.685-69.584-17.063-78.339-40.837c-8.536-23.179,37.247-53.268,73.028-6.821
						c1.361,1.766-19.326-26.399-17.967-28.167c5.866-7.635,21.287-23.481,42.698-13.874c20.036,8.99,22.294,23.672,22.018,31.072
						c-0.081,2.177,1.865,3.869,4.006,3.461c10.13-1.931,34.439-3.59,45.786,21.346c9.326,20.498,3.296,32.12-2.226,37.82
						c-1.799,1.856-1.044,4.912,1.427,5.667c6.644,2.031,4.406-1.205,3.546,14.383c-1.19,21.563-14.463,28.559-21.327,27.576
						c-1.124-0.161-2.257,0.225-3.019,1.067c-6.244,6.91-7.694,36.311-38.355,36.523c1.63-13.59-2.978-26.812-13.925-39.657
						c0.577-1.677-0.226-3.516-1.847-4.234L2945.375,1896.757z"/>
					
						<linearGradient id="SVGID_00000141444536226271377710000000052137172589986181_" gradientUnits="userSpaceOnUse" x1="1103.0651" y1="4670.2397" x2="1062.2552" y2="4535.6392" gradientTransform="matrix(-0.746 -0.6659 -0.6659 0.746 6822.9028 -803.1727)">
						<stop  offset="0" style="stop-color:#FEBBBA"/>
						<stop  offset="1" style="stop-color:#FF928E"/>
					</linearGradient>
					<path style="fill:url(#SVGID_00000141444536226271377710000000052137172589986181_);" d="M2940.382,1901.881
						c0,0,31.204-21.409,33.484-3.38c2.28,18.03-28.1,26.115-43.147,19.395L2940.382,1901.881z"/>
				</g>
				
					<linearGradient id="SVGID_00000096752745702486045920000003793651227755535295_" gradientUnits="userSpaceOnUse" x1="-6328.9688" y1="2430.9033" x2="-6392.8594" y2="801.6677" gradientTransform="matrix(1 0 0 1 9311.8828 0)">
					<stop  offset="0" style="stop-color:#09005D"/>
					<stop  offset="1" style="stop-color:#1A0F91"/>
				</linearGradient>
				<path style="fill:url(#SVGID_00000096752745702486045920000003793651227755535295_);" d="M2900.433,1836.479l97.895,72.681
					c4.249,3.218,10.139,3.063,14.217-0.369c20.802-17.502,75.175-73.461,10.08-136.52
					c-70.136-67.942-159.232,11.601-159.232,11.601C2864.064,1797.033,2880.271,1816.016,2900.433,1836.479z"/>
				
					<linearGradient id="SVGID_00000152237933151710232800000006727576349562996663_" gradientUnits="userSpaceOnUse" x1="-1691.2363" y1="2010.8369" x2="-1712.7639" y2="1461.8715" gradientTransform="matrix(-1 0 0 1 1148.9408 0)">
					<stop  offset="0" style="stop-color:#09005D"/>
					<stop  offset="1" style="stop-color:#1A0F91"/>
				</linearGradient>
				<path style="fill:url(#SVGID_00000152237933151710232800000006727576349562996663_);" d="M2905.889,1838.691l-102.957-34.115
					c-7.895-3.2-17.977-27.879-9.493-27.103l69.955,6.4L2905.889,1838.691z"/>
				
					<linearGradient id="SVGID_00000034783034361871462370000001731876342425145512_" gradientUnits="userSpaceOnUse" x1="2977.3276" y1="2087.2417" x2="2957.0037" y2="1568.9675">
					<stop  offset="0" style="stop-color:#09005D"/>
					<stop  offset="1" style="stop-color:#1A0F91"/>
				</linearGradient>
				<path style="fill:url(#SVGID_00000034783034361871462370000001731876342425145512_);" d="M2945.447,1869.899l-7.634,42.609
					c-1.169,6.527,4.661,12.151,11.142,10.747l54.366-11.781L2945.447,1869.899z"/>
			</g>
		</g>
	</g>
</g>
</svg>
